<?xml version="1.0" encoding="UTF-8" standalone="no"?>
<!-- Created with Inkscape (http://www.inkscape.org/) -->

<svg
   height="1000"
   width="2000"
   sodipodi:docname="logoguidato.svg"
   version="1.1"
   id="svg1"
   inkscape:version="1.4.3 (0d15f75, 2025-12-25)"
   xmlns:inkscape="http://www.inkscape.org/namespaces/inkscape"
   xmlns:sodipodi="http://sodipodi.sourceforge.net/DTD/sodipodi-0.dtd"
   xmlns="http://www.w3.org/2000/svg"
   xmlns:svg="http://www.w3.org/2000/svg"
   xmlns:rdf="http://www.w3.org/1999/02/22-rdf-syntax-ns#"
   xmlns:cc="http://creativecommons.org/ns#"
   xmlns:dc="http://purl.org/dc/elements/1.1/">
  <sodipodi:namedview
     id="base"
     pagecolor="#e3d6c2"
     bordercolor="#000000"
     borderopacity="0.3"
     inkscape:pageopacity="0.0"
     inkscape:pageshadow="2"
     inkscape:zoom="0.67059814"
     inkscape:cx="1225.0258"
     inkscape:cy="571.13191"
     inkscape:document-units="px"
     inkscape:current-layer="layer1"
     showgrid="false"
     showguides="false"
     showborder="true"
     inkscape:showpageshadow="false"
     inkscape:pagecheckerboard="0"
     inkscape:deskcolor="#8e8e8e"
     inkscape:window-width="1512"
     inkscape:window-height="915"
     inkscape:window-x="491"
     inkscape:window-y="1190"
     inkscape:window-maximized="0">
    <inkscape:grid
       id="grid1"
       units="px"
       originx="0"
       originy="0"
       spacingx="1"
       spacingy="1"
       empcolor="#0099e5"
       empopacity="0.30196078"
       color="#0099e5"
       opacity="0.14901961"
       empspacing="5"
       enabled="true"
       visible="false" />
    <sodipodi:guide
       position="1448.8032,424.80194"
       orientation="0,-1"
       id="guide7"
       inkscape:locked="false" />
    <sodipodi:guide
       position="1383.5246,395.32215"
       orientation="0.66939201,0.74290937"
       id="guide12"
       inkscape:locked="false" />
    <sodipodi:guide
       position="1382.7334,418.62372"
       orientation="0.74781136,-0.66391126"
       id="guide13"
       inkscape:locked="false" />
    <sodipodi:guide
       position="1378.1489,389.35608"
       orientation="0,-1"
       id="guide14"
       inkscape:locked="false" />
  </sodipodi:namedview>
  <defs
     id="defs4">
    <inkscape:path-effect
       effect="fillet_chamfer"
       id="path-effect15"
       is_visible="true"
       lpeversion="1"
       nodesatellites_param="F,0,0,1,0,0,0,1 @ F,0,1,1,0,20,0,1 @ F,0,0,1,0,0,0,1 @ F,0,0,1,0,0,0,1 @ F,0,0,1,0,0,0,1 @ F,0,0,1,0,0,0,1 @ F,0,0,1,0,0,0,1 @ F,0,0,1,0,0,0,1 @ F,0,0,1,0,0,0,1 @ F,0,0,1,0,0,0,1 @ F,0,0,1,0,0,0,1 @ F,0,0,1,0,0,0,1 @ F,0,0,1,0,0,0,1 @ F,0,0,1,0,0,0,1 @ F,0,0,1,0,0,0,1 @ F,0,0,1,0,0,0,1 | F,0,0,1,0,0,0,1 @ F,0,0,1,0,0,0,1 @ F,0,0,1,0,0,0,1 @ F,0,0,1,0,0,0,1 @ F,0,0,1,0,0,0,1 @ F,0,0,1,0,0,0,1 @ F,0,0,1,0,0,0,1 @ F,0,0,1,0,0,0,1 @ F,0,0,1,0,0,0,1 | F,0,0,1,0,0,0,1 @ F,0,0,1,0,0,0,1 @ F,0,0,1,0,0,0,1 @ F,0,0,1,0,0,0,1 @ F,0,0,1,0,0,0,1 @ F,0,0,1,0,0,0,1 @ F,0,0,1,0,0,0,1 @ F,0,0,1,0,0,0,1 @ F,0,0,1,0,0,0,1"
       radius="20"
       unit="px"
       method="auto"
       mode="F"
       chamfer_steps="1"
       flexible="false"
       use_knot_distance="true"
       apply_no_radius="true"
       apply_with_radius="true"
       only_selected="true"
       hide_knots="false" />
    <inkscape:path-effect
       effect="fillet_chamfer"
       id="path-effect10"
       is_visible="true"
       lpeversion="1"
       nodesatellites_param="F,0,0,1,0,3,0,1 @ F,0,0,1,0,3,0,1 @ F,0,0,1,0,3,0,1 @ F,0,0,1,0,3,0,1"
       radius="3"
       unit="px"
       method="auto"
       mode="F"
       chamfer_steps="1"
       flexible="false"
       use_knot_distance="true"
       apply_no_radius="true"
       apply_with_radius="true"
       only_selected="false"
       hide_knots="false" />
    <inkscape:path-effect
       effect="offset"
       id="path-effect7"
       is_visible="true"
       lpeversion="1.3"
       linejoin_type="miter"
       unit="mm"
       offset="-2.4"
       miter_limit="4"
       attempt_force_join="false"
       update_on_knot_move="true" />
    <inkscape:path-effect
       effect="offset"
       id="path-effect6"
       is_visible="true"
       lpeversion="1.3"
       linejoin_type="miter"
       unit="mm"
       offset="-2.4"
       miter_limit="4"
       attempt_force_join="false"
       update_on_knot_move="true" />
    <inkscape:path-effect
       effect="offset"
       id="path-effect5"
       is_visible="true"
       lpeversion="1.3"
       linejoin_type="miter"
       unit="mm"
       offset="-2.4"
       miter_limit="4"
       attempt_force_join="false"
       update_on_knot_move="true" />
    <inkscape:path-effect
       effect="fillet_chamfer"
       id="path-effect17"
       is_visible="true"
       lpeversion="1"
       nodesatellites_param="F,0,0,1,0,20,0,1 @ F,0,0,1,0,20,0,1 @ F,0,0,1,0,20,0,1 @ F,0,0,1,0,20,0,1"
       radius="20"
       unit="px"
       method="auto"
       mode="F"
       chamfer_steps="1"
       flexible="false"
       use_knot_distance="true"
       apply_no_radius="true"
       apply_with_radius="true"
       only_selected="false"
       hide_knots="false" />
    <inkscape:path-effect
       effect="fillet_chamfer"
       id="path-effect16"
       is_visible="true"
       lpeversion="1"
       nodesatellites_param="F,0,0,1,0,2,0,1 @ F,0,0,1,0,2,0,1 @ F,0,0,1,0,2,0,1 @ F,0,0,1,0,2,0,1"
       radius="10"
       unit="px"
       method="auto"
       mode="F"
       chamfer_steps="1"
       flexible="false"
       use_knot_distance="true"
       apply_no_radius="true"
       apply_with_radius="true"
       only_selected="false"
       hide_knots="false" />
    <inkscape:path-effect
       effect="fillet_chamfer"
       id="path-effect14"
       is_visible="true"
       lpeversion="1"
       nodesatellites_param="F,0,0,1,0,10,0,1 @ F,0,0,1,0,10,0,1 @ F,0,0,1,0,10,0,1 @ F,0,0,1,0,10,0,1"
       radius="10"
       unit="px"
       method="auto"
       mode="F"
       chamfer_steps="1"
       flexible="false"
       use_knot_distance="true"
       apply_no_radius="true"
       apply_with_radius="true"
       only_selected="false"
       hide_knots="false" />
    <inkscape:path-effect
       effect="fillet_chamfer"
       id="path-effect13"
       is_visible="true"
       lpeversion="1"
       nodesatellites_param="F,0,0,1,0,10,0,1 @ F,0,0,1,0,10,0,1 @ F,0,0,1,0,10,0,1 @ F,0,0,1,0,10,0,1"
       radius="10"
       unit="px"
       method="auto"
       mode="F"
       chamfer_steps="1"
       flexible="false"
       use_knot_distance="true"
       apply_no_radius="true"
       apply_with_radius="true"
       only_selected="false"
       hide_knots="false" />
    <inkscape:path-effect
       effect="fillet_chamfer"
       id="path-effect12"
       is_visible="true"
       lpeversion="1"
       nodesatellites_param="F,0,0,1,0,10,0,1 @ F,0,0,1,0,10,0,1 @ F,0,0,1,0,10,0,1 @ F,0,0,1,0,10,0,1"
       radius="10"
       unit="px"
       method="auto"
       mode="F"
       chamfer_steps="1"
       flexible="false"
       use_knot_distance="true"
       apply_no_radius="true"
       apply_with_radius="true"
       only_selected="false"
       hide_knots="false" />
    <inkscape:path-effect
       effect="fillet_chamfer"
       id="path-effect11"
       is_visible="true"
       lpeversion="1"
       nodesatellites_param="F,0,0,1,0,10,0,1 @ F,0,0,1,0,10,0,1 @ F,0,0,1,0,10,0,1 @ F,0,0,1,0,10,0,1"
       radius="10"
       unit="px"
       method="auto"
       mode="F"
       chamfer_steps="1"
       flexible="false"
       use_knot_distance="true"
       apply_no_radius="true"
       apply_with_radius="true"
       only_selected="false"
       hide_knots="false" />
    <inkscape:path-effect
       effect="fillet_chamfer"
       id="path-effect13-5"
       is_visible="true"
       lpeversion="1"
       nodesatellites_param="F,0,0,1,0,20,0,1 @ F,0,0,1,0,20,0,1 @ F,0,0,1,0,20,0,1 @ F,0,0,1,0,20,0,1"
       radius="20"
       unit="px"
       method="auto"
       mode="F"
       chamfer_steps="1"
       flexible="false"
       use_knot_distance="true"
       apply_no_radius="true"
       apply_with_radius="true"
       only_selected="false"
       hide_knots="false" />
    <inkscape:path-effect
       effect="fillet_chamfer"
       id="path-effect14-1"
       is_visible="true"
       lpeversion="1"
       nodesatellites_param="F,0,0,1,0,10,0,1 @ F,0,0,1,0,10,0,1 @ F,0,0,1,0,10,0,1 @ F,0,0,1,0,10,0,1"
       radius="10"
       unit="px"
       method="auto"
       mode="F"
       chamfer_steps="1"
       flexible="false"
       use_knot_distance="true"
       apply_no_radius="true"
       apply_with_radius="true"
       only_selected="false"
       hide_knots="false" />
    <inkscape:path-effect
       effect="fillet_chamfer"
       id="path-effect12-2"
       is_visible="true"
       lpeversion="1"
       nodesatellites_param="F,0,0,1,0,20,0,1 @ F,0,0,1,0,20,0,1 @ F,0,0,1,0,20,0,1 @ F,0,0,1,0,20,0,1"
       radius="20"
       unit="px"
       method="auto"
       mode="F"
       chamfer_steps="1"
       flexible="false"
       use_knot_distance="true"
       apply_no_radius="true"
       apply_with_radius="true"
       only_selected="false"
       hide_knots="false" />
    <inkscape:path-effect
       effect="fillet_chamfer"
       id="path-effect11-6"
       is_visible="true"
       lpeversion="1"
       nodesatellites_param="F,0,0,1,0,19,0,1 @ F,0,0,1,0,19,0,1 @ F,0,0,1,0,19,0,1 @ F,0,0,1,0,19,0,1"
       radius="20"
       unit="px"
       method="auto"
       mode="F"
       chamfer_steps="1"
       flexible="false"
       use_knot_distance="true"
       apply_no_radius="true"
       apply_with_radius="true"
       only_selected="false"
       hide_knots="false" />
    <inkscape:path-effect
       effect="fillet_chamfer"
       id="path-effect11-6-0"
       is_visible="true"
       lpeversion="1"
       nodesatellites_param="F,0,0,1,0,19,0,1 @ F,0,0,1,0,19,0,1 @ F,0,0,1,0,19,0,1 @ F,0,0,1,0,19,0,1"
       radius="20"
       unit="px"
       method="auto"
       mode="F"
       chamfer_steps="1"
       flexible="false"
       use_knot_distance="true"
       apply_no_radius="true"
       apply_with_radius="true"
       only_selected="false"
       hide_knots="false" />
    <inkscape:path-effect
       effect="fillet_chamfer"
       id="path-effect11-6-0-5"
       is_visible="true"
       lpeversion="1"
       nodesatellites_param="F,0,0,1,0,19,0,1 @ F,0,0,1,0,19,0,1 @ F,0,0,1,0,19,0,1 @ F,0,0,1,0,19,0,1"
       radius="20"
       unit="px"
       method="auto"
       mode="F"
       chamfer_steps="1"
       flexible="false"
       use_knot_distance="true"
       apply_no_radius="true"
       apply_with_radius="true"
       only_selected="false"
       hide_knots="false" />
    <inkscape:path-effect
       effect="offset"
       id="path-effect5-9"
       is_visible="true"
       lpeversion="1.3"
       linejoin_type="miter"
       unit="mm"
       offset="-2.4"
       miter_limit="4"
       attempt_force_join="false"
       update_on_knot_move="true" />
    <inkscape:path-effect
       effect="fillet_chamfer"
       id="path-effect13-5-5"
       is_visible="true"
       lpeversion="1"
       nodesatellites_param="F,0,0,1,0,20,0,1 @ F,0,0,1,0,20,0,1 @ F,0,0,1,0,20,0,1 @ F,0,0,1,0,20,0,1"
       radius="20"
       unit="px"
       method="auto"
       mode="F"
       chamfer_steps="1"
       flexible="false"
       use_knot_distance="true"
       apply_no_radius="true"
       apply_with_radius="true"
       only_selected="false"
       hide_knots="false" />
    <inkscape:path-effect
       effect="offset"
       id="path-effect6-6"
       is_visible="true"
       lpeversion="1.3"
       linejoin_type="miter"
       unit="mm"
       offset="-2.4"
       miter_limit="4"
       attempt_force_join="false"
       update_on_knot_move="true" />
    <inkscape:path-effect
       effect="fillet_chamfer"
       id="path-effect11-6-0-9"
       is_visible="true"
       lpeversion="1"
       nodesatellites_param="F,0,0,1,0,19,0,1 @ F,0,0,1,0,19,0,1 @ F,0,0,1,0,19,0,1 @ F,0,0,1,0,19,0,1"
       radius="20"
       unit="px"
       method="auto"
       mode="F"
       chamfer_steps="1"
       flexible="false"
       use_knot_distance="true"
       apply_no_radius="true"
       apply_with_radius="true"
       only_selected="false"
       hide_knots="false" />
    <inkscape:path-effect
       effect="offset"
       id="path-effect5-7"
       is_visible="true"
       lpeversion="1.3"
       linejoin_type="miter"
       unit="mm"
       offset="-2.4"
       miter_limit="4"
       attempt_force_join="false"
       update_on_knot_move="true" />
  </defs>
  <metadata
     id="metadata7">
    <rdf:RDF>
      <cc:Work
         rdf:about="">
        <dc:format>image/svg+xml</dc:format>
        <dc:type
           rdf:resource="http://purl.org/dc/dcmitype/StillImage" />
      </cc:Work>
    </rdf:RDF>
  </metadata>
  <g
     id="layer1"
     inkscape:groupmode="layer"
     inkscape:label="Layer 1">
    <g
       inkscape:groupmode="layer"
       id="layer2"
       inkscape:label="Layer 2"
       style="display:none">
      <circle
         style="fill:none;stroke:#ececec;stroke-width:1.88976;stroke-linecap:square;stroke-miterlimit:1.6;stroke-opacity:1;paint-order:stroke fill markers"
         id="path1"
         cx="255"
         cy="505"
         r="65" />
      <circle
         style="fill:none;stroke:#ececec;stroke-width:1.88976;stroke-linecap:square;stroke-miterlimit:1.6;stroke-opacity:1;paint-order:stroke fill markers"
         id="path1-8-3"
         cx="365.96194"
         cy="394.03806"
         r="65" />
      <circle
         style="fill:none;stroke:#ececec;stroke-width:1.88976;stroke-linecap:square;stroke-miterlimit:1.6;stroke-opacity:1;paint-order:stroke fill markers"
         id="path1-8-7"
         cx="365.96194"
         cy="615.96191"
         r="65" />
      <circle
         style="fill:none;stroke:#ececec;stroke-width:1.88976;stroke-linecap:square;stroke-miterlimit:1.6;stroke-opacity:1;paint-order:stroke fill markers"
         id="path1-7"
         cx="255"
         cy="615.96191"
         r="65" />
      <circle
         style="fill:none;stroke:#ececec;stroke-width:1.88976;stroke-linecap:square;stroke-miterlimit:1.6;stroke-opacity:1;paint-order:stroke fill markers"
         id="path1-8"
         cx="365.96194"
         cy="505"
         r="65" />
      <path
         style="fill:none;stroke:#ececec;stroke-width:1.88976;stroke-linecap:square;stroke-miterlimit:1.6;stroke-opacity:1;paint-order:stroke fill markers"
         d="M 209.03804,459.03808 411.92389,661.92385"
         id="path6" />
      <path
         style="fill:none;stroke:#ececec;stroke-width:1.88976;stroke-linecap:square;stroke-miterlimit:1.6;stroke-opacity:1;paint-order:stroke fill markers"
         d="m 365.96194,505 45.96194,45.96194 -91.92387,-91.92388"
         id="path8" />
      <path
         style="fill:none;stroke:#ececec;stroke-width:1.88976;stroke-linecap:square;stroke-miterlimit:1.6;stroke-opacity:1;paint-order:stroke fill markers"
         d="M 365.96194,615.96191 411.92389,569.99997 320,661.92385"
         id="path9" />
    </g>
    <path
       style="fill:#000000;fill-opacity:1;stroke:none;stroke-width:1.89;stroke-linecap:square;stroke-miterlimit:1.6;stroke-dasharray:none;paint-order:stroke fill markers"
       id="rect5"
       width="91.923882"
       height="91.923882"
       x="209.03806"
       y="459.03806"
       sodipodi:type="rect"
       d="m 219.03806,459.03806 71.92388,0 a 10,10 45 0 1 10,10 l 0,71.92388 a 10,10 135 0 1 -10,10 h -71.92388 a 10,10 45 0 1 -10,-10 v -71.92388 a 10,10 135 0 1 10,-10 z"
       inkscape:path-effect="#path-effect13" />
    <path
       style="fill:#000000;fill-opacity:1;stroke:none;stroke-width:1.89;stroke-linecap:square;stroke-miterlimit:1.6;stroke-dasharray:none;paint-order:stroke fill markers"
       id="rect5-6"
       width="91.923882"
       height="91.923882"
       x="209.03806"
       y="570"
       sodipodi:type="rect"
       d="m 219.03806,570 h 71.92388 a 10,10 45 0 1 10,10 l 0,71.92388 a 10,10 135 0 1 -10,10 h -71.92388 a 10,10 45 0 1 -10,-10 V 580 a 10,10 135 0 1 10,-10 z"
       inkscape:path-effect="#path-effect14" />
    <path
       style="fill:#000000;fill-opacity:1;stroke:none;stroke-width:1.89;stroke-linecap:square;stroke-miterlimit:1.6;stroke-dasharray:none;stroke-opacity:1;paint-order:stroke fill markers"
       id="rect11"
       width="91.923882"
       height="313.84772"
       x="320"
       y="348.07611"
       inkscape:path-effect="#path-effect12"
       sodipodi:type="rect"
       d="m 330,348.07611 71.92388,0 a 10,10 45 0 1 10,10 v 293.84772 a 10,10 135 0 1 -10,10 H 330 a 10,10 45 0 1 -10,-10 V 358.07611 a 10,10 135 0 1 10,-10 z" />
    <path
       style="fill:#000000;fill-opacity:1;stroke:none;stroke-width:1.89;stroke-linecap:square;stroke-miterlimit:1.6;stroke-dasharray:none;stroke-opacity:1;paint-order:stroke fill markers"
       id="rect11-6"
       width="91.923882"
       height="313.84772"
       x="432.85172"
       y="348.07614"
       inkscape:path-effect="#path-effect11"
       sodipodi:type="rect"
       d="m 442.85172,348.07614 h 71.92388 a 10,10 45 0 1 10,10 v 293.84772 a 10,10 135 0 1 -10,10 h -71.92388 a 10,10 45 0 1 -10,-10 V 358.07614 a 10,10 135 0 1 10,-10 z" />
    <text
       xml:space="preserve"
       style="font-style:normal;font-variant:normal;font-weight:normal;font-stretch:normal;font-size:96.8093px;font-family:'Courier New';-inkscape-font-specification:'Courier New';letter-spacing:-5px;writing-mode:lr-tb;direction:ltr;white-space:pre;inline-size:378.906;display:inline;fill:#000000;fill-opacity:1;stroke:none;stroke-width:1.89;stroke-linecap:square;stroke-miterlimit:1.6;stroke-dasharray:none;stroke-opacity:1;paint-order:stroke fill markers"
       x="202.8714"
       y="763.47772"
       id="text15"
       transform="matrix(0.85728721,0,0,0.97286975,29.121693,18.149048)"><tspan
         x="202.8714"
         y="763.47772"
         id="tspan2"><tspan
           style="font-weight:500;font-family:'Roboto Mono Medium for Powerline';-inkscape-font-specification:'Roboto Mono Medium for Powerline Medium'"
           id="tspan1">BIKAPPA</tspan></tspan></text>
    <path
       style="fill:#90be6d;fill-opacity:1;stroke:#000000;stroke-width:18.69;stroke-linecap:square;stroke-miterlimit:1.6;stroke-dasharray:none;paint-order:markers fill stroke;stroke-opacity:1"
       id="rect5-5"
       width="91.923882"
       height="91.923882"
       x="209.03806"
       y="459.03806"
       sodipodi:type="rect"
       d="m 229.03711,468.11719 c -6.13803,0 -10.91992,4.78189 -10.91992,10.91992 v 51.92578 c 0,6.13803 4.78189,10.91992 10.91992,10.91992 h 51.92578 c 6.13803,0 10.91992,-4.78189 10.91992,-10.91992 v -51.92578 c 0,-6.13803 -4.78189,-10.91992 -10.91992,-10.91992 z"
       transform="translate(615.90477,-5)"
       inkscape:path-effect="#path-effect13-5;#path-effect6"
       inkscape:export-filename="../public/logo.png"
       inkscape:export-xdpi="96"
       inkscape:export-ydpi="96" />
    <path
       style="fill:#f94144;fill-opacity:1;stroke:#000000;stroke-width:18.69;stroke-linecap:square;stroke-miterlimit:1.6;stroke-dasharray:none;stroke-opacity:1;paint-order:markers fill stroke"
       id="rect5-6-4"
       width="91.923882"
       height="91.923882"
       x="209.03806"
       y="570"
       sodipodi:type="rect"
       transform="translate(615.90477,-5)"
       d="m 229.03711,579.08008 c -6.13803,0 -10.91992,4.78189 -10.91992,10.91992 v 51.92383 c 0,6.13803 4.78189,10.91992 10.91992,10.91992 h 51.92578 c 6.13803,0 10.91992,-4.78189 10.91992,-10.91992 V 590 c 0,-6.13803 -4.78189,-10.91992 -10.91992,-10.91992 z"
       inkscape:path-effect="#path-effect17;#path-effect7" />
    <path
       d="m 1158.4238,641.03906 c -1.3708,7.99146 -7.8934,14.51356 -15.8847,15.88477 h 15.8847 z"
       style="fill:#000000;stroke-width:18.69;stroke-linecap:square;stroke-miterlimit:1.6;paint-order:stroke fill markers;fill-opacity:1"
       id="path14" />
    <path
       style="fill:#f9c74f;fill-opacity:1;stroke:#000000;stroke-width:18.69;stroke-linecap:square;stroke-miterlimit:1.6;stroke-dasharray:none;stroke-opacity:1;paint-order:markers fill stroke"
       id="rect11-6-7-2"
       width="91.923882"
       height="313.84772"
       x="432.85172"
       y="348.07614"
       sodipodi:type="rect"
       d="m 451.85156,357.15625 c -5.58574,0 -9.91992,4.33418 -9.91992,9.91992 v 275.84766 c 0,5.58574 4.33418,9.91992 9.91992,9.91992 h 53.92383 c 5.58575,0 9.91992,-4.33418 9.91992,-9.91992 V 367.07617 c 0,-5.58574 -4.33417,-9.91992 -9.91992,-9.91992 z"
       transform="translate(615.90478,-5)"
       inkscape:path-effect="#path-effect11-6-0;#path-effect5" />
    <path
       style="fill:#277da1;fill-opacity:1;stroke:#000000;stroke-width:18.69;stroke-linecap:square;stroke-miterlimit:1.6;stroke-dasharray:none;stroke-opacity:1;paint-order:markers fill stroke"
       id="rect11-6-7-2-4"
       width="91.923882"
       height="313.84772"
       x="432.85172"
       y="348.07614"
       sodipodi:type="rect"
       d="m 451.85156,357.15625 c -5.58574,0 -9.91992,4.33418 -9.91992,9.91992 v 275.84766 c 0,5.58574 4.33418,9.91992 9.91992,9.91992 h 53.92383 c 5.58575,0 9.91992,-4.33418 9.91992,-9.91992 V 367.07617 c 0,-5.58574 -4.33417,-9.91992 -9.91992,-9.91992 z"
       transform="translate(505.97349,-5)"
       inkscape:path-effect="#path-effect11-6-0-5;#path-effect5-9" />
    <g
       id="text1"
       style="font-size:317.066px;font-family:Alata;-inkscape-font-specification:Alata;letter-spacing:-8.25694px;fill:#ffffff;stroke-width:3.12112;stroke-linecap:square;stroke-miterlimit:1.6;paint-order:stroke fill markers;stroke:none"
       aria-label="Bikappa">
      <path
         style="font-size:266.667px;fill:#000000;stroke:none"
         d="M 1158.423,656.92383 V 480.92359 a 20,20 135 0 1 20,-20 h 29.8667 c 16,0 28.6222,1.6 37.8667,4.8 9.4222,3.20001 16.3555,7.2889 20.8,12.26669 4.6223,4.97778 7.6445,10.22223 9.0667,15.73335 1.4222,5.51112 2.1333,10.66668 2.1333,15.46668 0,5.15557 -0.8,10.5778 -2.4,16.26669 -1.4222,5.51112 -3.9111,10.66668 -7.4666,15.46669 -3.5556,4.62223 -8.4445,8.35556 -14.6667,11.20001 13.3333,3.37778 22.7556,9.24445 28.2667,17.60002 5.6889,8.17779 8.5333,17.33335 8.5333,27.4667 0,6.93334 -0.8,13.95557 -2.4,21.06669 -1.6,7.11112 -4.9778,13.60002 -10.1333,19.46669 -4.9778,5.6889 -12.5334,10.31113 -22.6667,13.86669 -10.1334,3.55556 -23.7334,5.33334 -40.8001,5.33334 z m 29.3333,-112.80014 h 25.3334 c 9.2445,0 16.3556,-1.51111 21.3333,-4.53334 4.9778,-3.2 8.4445,-7.28889 10.4001,-12.26668 2.1333,-4.97779 3.2,-10.22224 3.2,-15.73335 0,-4.62223 -1.0667,-8.80001 -3.2,-12.53335 -1.9556,-3.91112 -5.6001,-7.02224 -10.9334,-9.33335 -5.1555,-2.31111 -12.5333,-3.46667 -22.1334,-3.46667 h -24 z m 0,87.73344 h 30.6667 c 9.0667,0 16.2667,-1.06667 21.6,-3.2 5.5111,-2.13334 9.6889,-4.8889 12.5334,-8.26668 2.8445,-3.37778 4.7111,-7.02223 5.6,-10.93335 0.8889,-4.08889 1.3333,-8.0889 1.3333,-12.00001 0,-9.24445 -3.1111,-16.44446 -9.3333,-21.60003 -6.2222,-5.33334 -16,-8.00001 -29.3334,-8.00001 h -33.0667 z"
         id="path7"
         inkscape:path-effect="#path-effect15"
         inkscape:original-d="M 1158.423,656.92383 V 460.92359 h 49.8667 q 24,0 37.8667,4.8 14.1333,4.80001 20.8,12.26669 6.9334,7.46667 9.0667,15.73335 2.1333,8.26668 2.1333,15.46668 0,7.73335 -2.4,16.26669 -2.1333,8.26668 -7.4666,15.46669 -5.3334,6.93334 -14.6667,11.20001 20,5.06667 28.2667,17.60002 8.5333,12.26668 8.5333,27.4667 0,10.40001 -2.4,21.06669 -2.4,10.66668 -10.1333,19.46669 -7.4667,8.53335 -22.6667,13.86669 -15.2001,5.33334 -40.8001,5.33334 z m 29.3333,-112.80014 h 25.3334 q 13.8667,0 21.3333,-4.53334 7.4667,-4.8 10.4001,-12.26668 3.2,-7.46668 3.2,-15.73335 0,-6.93334 -3.2,-12.53335 -2.9334,-5.86668 -10.9334,-9.33335 -7.7333,-3.46667 -22.1334,-3.46667 h -24 z m 0,87.73344 h 30.6667 q 13.6,0 21.6,-3.2 8.2667,-3.20001 12.5334,-8.26668 4.2667,-5.06667 5.6,-10.93335 1.3333,-6.13334 1.3333,-12.00001 0,-13.86668 -9.3333,-21.60003 -9.3333,-8.00001 -29.3334,-8.00001 h -33.0667 z" />
      <path
         style="font-size:173.333px;fill:#000000;stroke:none"
         d="m 1301.9927,656.92383 v -81.72577 h 19.4133 v 81.72577 z m 35.2496,0 V 537.61629 h 17.8533 v 61.76098 l -0.3467,13.51998 33.4696,-37.69919 21.8686,0 -31.9382,35.44586 30.1599,46.27991 h -22.0133 l -16.12,-25.99995 -4.5066,-8.83998 -10.4,11.26664 v 23.57329 z m 110.8229,1.73333 c -7.0489,0 -13.6355,-1.67555 -19.76,-5.02666 -6.0089,-3.35111 -10.8622,-8.14665 -14.56,-14.38664 -3.6977,-6.23999 -5.5466,-13.6933 -5.5466,-22.35995 0,-8.31999 1.56,-15.59997 4.68,-21.83996 3.2355,-6.23999 7.7422,-11.09331 13.5199,-14.55997 5.8933,-3.46666 12.8844,-5.19999 20.9733,-5.19999 14.2882,0 29.12,-0.0859 29.12,-0.0859 h 17.8533 v 81.72577 h -17.68 l -0.3467,-14.03997 c -1.1555,2.54221 -3.12,5.02665 -5.8933,7.45331 -2.6577,2.42667 -5.8933,4.44889 -9.7066,6.06666 -3.8133,1.50222 -8.0311,2.25333 -12.6533,2.25333 z m 3.12,-15.59997 c 4.2755,0 8.1466,-0.98222 11.6133,-2.94666 3.5822,-2.08 6.4133,-4.96888 8.4933,-8.66665 2.1955,-3.69777 3.2933,-8.08888 3.2933,-13.17331 v -1.21333 c 0,-5.19999 -1.0978,-9.70664 -3.2933,-13.51997 -2.08,-3.92889 -4.9111,-6.93333 -8.4933,-9.01332 -3.4667,-2.19555 -7.3378,-3.29333 -11.6133,-3.29333 -7.7422,0 -13.5778,2.48444 -17.5067,7.45332 -3.8133,4.96888 -5.72,11.09331 -5.72,18.3733 0,7.39554 1.9067,13.57775 5.72,18.54663 3.9289,4.96888 9.7645,7.45332 17.5067,7.45332 z m 57.0897,55.98656 V 575.19806 h 18.0266 c 0,0 14.497,0.0859 29.8133,0.0859 7.1644,0 13.5777,1.50222 19.2399,4.50666 5.6622,3.00443 10.1111,7.56887 13.3467,13.6933 3.3511,6.12443 5.0266,13.86664 5.0266,23.22662 0,8.5511 -1.7333,16.00442 -5.2,22.35996 -3.4667,6.23999 -8.0889,11.09331 -13.8666,14.55997 -5.7778,3.35111 -12.2489,5.02666 -19.4133,5.02666 -6.8177,0 -12.6533,-1.21333 -17.5066,-3.63999 -4.8533,-2.42667 -8.6667,-5.77777 -11.44,-10.05332 v 54.0799 z m 42.6399,-56.15989 c 7.8577,0 13.6933,-2.48444 17.5066,-7.45332 3.9289,-4.96888 5.8933,-11.03554 5.8933,-18.19997 0,-7.51109 -1.9644,-13.6933 -5.8933,-18.54663 -3.8133,-4.85332 -9.6489,-7.27998 -17.5066,-7.27998 -4.16,0 -8.0311,0.98222 -11.6133,2.94666 -3.5823,1.96444 -6.4712,4.79554 -8.6667,8.49331 -2.1955,3.69777 -3.2933,8.14665 -3.2933,13.34664 v 1.21334 c 0,5.08443 1.0978,9.59109 3.2933,13.51997 2.1955,3.81333 5.0844,6.75999 8.6667,8.83998 3.5822,2.08 7.4533,3.12 11.6133,3.12 z m 53.2762,56.15989 V 575.19806 h 18.0267 c 0,0 14.4967,0.0859 29.8132,0.0859 7.1645,0 13.5778,1.50222 19.24,4.50666 5.6622,3.00443 10.1111,7.56887 13.3466,13.6933 3.3511,6.12443 5.0267,13.86664 5.0267,23.22662 0,8.5511 -1.7333,16.00442 -5.2,22.35996 -3.4667,6.23999 -8.0889,11.09331 -13.8666,14.55997 -5.7778,3.35111 -12.2489,5.02666 -19.4133,5.02666 -6.8178,0 -12.6534,-1.21333 -17.5067,-3.63999 -4.8533,-2.42667 -8.6666,-5.77777 -11.4399,-10.05332 v 54.0799 z m 42.6399,-56.15989 c 7.8578,0 13.6934,-2.48444 17.5067,-7.45332 3.9289,-4.96888 5.8933,-11.03554 5.8933,-18.19997 0,-7.51109 -1.9644,-13.6933 -5.8933,-18.54663 -3.8133,-4.85332 -9.6489,-7.27998 -17.5067,-7.27998 -4.1599,0 -8.031,0.98222 -11.6133,2.94666 -3.5822,1.96444 -6.4711,4.79554 -8.6666,8.49331 -2.1955,3.69777 -3.2933,8.14665 -3.2933,13.34664 v 1.21334 c 0,5.08443 1.0978,9.59109 3.2933,13.51997 2.1955,3.81333 5.0844,6.75999 8.6666,8.83998 3.5823,2.08 7.4534,3.12 11.6133,3.12 z m 89.6763,15.7733 c -7.0489,0 -13.6355,-1.67555 -19.7599,-5.02666 -6.0089,-3.35111 -10.8623,-8.14665 -14.56,-14.38664 -3.6978,-6.23999 -5.5467,-13.6933 -5.5467,-22.35995 0,-8.31999 1.56,-15.59997 4.68,-21.83996 3.2355,-6.23999 7.7422,-11.09331 13.52,-14.55997 5.8933,-3.46666 12.8845,-5.15204 20.9733,-5.19999 14.4904,-0.0859 23.9199,-0.0859 29.1199,-0.0859 h 17.8533 v 81.72577 h -17.6799 l -0.3467,-14.03997 c -1.1555,2.54221 -3.12,5.02665 -5.8933,7.45331 -2.6578,2.42667 -5.8934,4.44889 -9.7067,6.06666 -3.8133,1.50222 -8.0311,2.25333 -12.6533,2.25333 z m 3.12,-15.59997 c 4.2755,0 8.1466,-0.98222 11.6133,-2.94666 3.5822,-2.08 6.4133,-4.96888 8.4933,-8.66665 2.1956,-3.69777 3.2934,-8.08888 3.2934,-13.17331 v -1.21333 c 0,-5.19999 -1.0978,-9.70664 -3.2934,-13.51997 -2.08,-3.92889 -4.9111,-6.93333 -8.4933,-9.01332 -3.4667,-2.19555 -7.3378,-3.29333 -11.6133,-3.29333 -7.7422,0 -13.5777,2.48444 -17.5066,7.45332 -3.8133,4.96888 -5.72,11.09331 -5.72,18.3733 0,7.39554 1.9067,13.57775 5.72,18.54663 3.9289,4.96888 9.7644,7.45332 17.5066,7.45332 z"
         id="path10"
         sodipodi:nodetypes="ccccccccccccccccccccscssccscccccccssccssccscscscscsscsccsscccscscssssscsscscsscsccsscccssscssssscssscssccssscccccssccssccscscscc" />
      <path
         style="fill:#000000;fill-opacity:1;stroke:none;stroke-width:18.69;stroke-linecap:square;stroke-miterlimit:1.6;stroke-dasharray:none;stroke-opacity:1;paint-order:stroke fill markers"
         id="rect10"
         width="19.750223"
         height="19.750223"
         x="1301.8608"
         y="529.52411"
         inkscape:path-effect="#path-effect10"
         sodipodi:type="rect"
         d="m 1304.8608,529.52411 h 13.7503 a 3,3 45 0 1 3,3 v 13.75022 a 3,3 135 0 1 -3,3 h -13.7503 a 3,3 45 0 1 -3,-3 v -13.75022 a 3,3 135 0 1 3,-3 z"
         transform="matrix(0.99146987,0,0,0.99146987,11.068425,12.609086)" />
    </g>
    <text
       xml:space="preserve"
       style="font-size:317.066px;font-family:Alata;-inkscape-font-specification:Alata;letter-spacing:-8.25694px;writing-mode:lr-tb;direction:ltr;fill:#ffffff;stroke-width:3.12112;stroke-linecap:square;stroke-miterlimit:1.6;paint-order:stroke fill markers"
       x="1316.2443"
       y="656.92383"
       id="text1-8"><tspan
         sodipodi:role="line"
         id="tspan1-3"
         x="1316.2443"
         y="656.92383"
         style="fill:#000000;fill-opacity:1;stroke-width:3.12112" /></text>
    <path
       style="fill:#000000;fill-opacity:1;stroke:none;stroke-width:18.69;stroke-linecap:square;stroke-miterlimit:1.6;stroke-dasharray:none;stroke-opacity:1;paint-order:stroke fill markers"
       d="M 1140.6803,639.72742 Z"
       id="path12" />
  </g>
</svg>
