<?xml version="1.0" encoding="UTF-8" standalone="no"?>
<svg
   width="39.112133mm"
   height="22.219994mm"
   viewBox="0 0 39.112133 22.219994"
   version="1.1"
   id="svg1"
   xml:space="preserve"
   xmlns="http://www.w3.org/2000/svg"
   xmlns:svg="http://www.w3.org/2000/svg"><defs
     id="defs1"><filter
       style="color-interpolation-filters:sRGB"
       id="filter289"
       x="-0.030061762"
       y="-0.055500001"
       width="1.0601482"
       height="1.111"><feColorMatrix
         values="1 0 0 0 0 0 1 0 0 0 0 0 1 0 0 -0.21 -0.72 -0.07 2 0 "
         result="fbSourceGraphic"
         id="feColorMatrix289" /><feColorMatrix
         result="fbSourceGraphicAlpha"
         in="fbSourceGraphic"
         values="0 0 0 -1 0 0 0 0 -1 0 0 0 0 -1 0 0 0 0 1 0"
         id="feColorMatrix290" /><feColorMatrix
         id="feColorMatrix291"
         values="1 0 0 0 0 0 1 0 0 0 0 0 1 0 0 -0.21 -0.72 -0.07 2 0 "
         result="fbSourceGraphic"
         in="fbSourceGraphic" /><feColorMatrix
         result="fbSourceGraphicAlpha"
         in="fbSourceGraphic"
         values="0 0 0 -1 0 0 0 0 -1 0 0 0 0 -1 0 0 0 0 1 0"
         id="feColorMatrix297" /><feColorMatrix
         id="feColorMatrix298"
         values="0 0 -1 0 1 0 -1 0 0 1 -1 0 0 0 1 0.21 0.72 0.07 1 0 "
         result="fbSourceGraphic"
         in="fbSourceGraphic" /><feColorMatrix
         result="fbSourceGraphicAlpha"
         in="fbSourceGraphic"
         values="0 0 0 -1 0 0 0 0 -1 0 0 0 0 -1 0 0 0 0 1 0"
         id="feColorMatrix299" /><feColorMatrix
         id="feColorMatrix300"
         values="0 0 -1 0 1 0 -1 0 0 1 -1 0 0 0 1 0.21 0.72 0.07 1 0 "
         result="fbSourceGraphic"
         in="fbSourceGraphic" /><feColorMatrix
         result="fbSourceGraphicAlpha"
         in="fbSourceGraphic"
         values="0 0 0 -1 0 0 0 0 -1 0 0 0 0 -1 0 0 0 0 1 0"
         id="feColorMatrix301" /><feColorMatrix
         id="feColorMatrix302"
         values="0 0 -1 0 1 0 -1 0 0 1 -1 0 0 0 1 0.21 0.72 0.07 1 0 "
         result="fbSourceGraphic"
         in="fbSourceGraphic" /><feColorMatrix
         result="fbSourceGraphicAlpha"
         in="fbSourceGraphic"
         values="0 0 0 -1 0 0 0 0 -1 0 0 0 0 -1 0 0 0 0 1 0"
         id="feColorMatrix407" /><feFlood
         id="feFlood407"
         result="flood"
         in="fbSourceGraphic"
         flood-opacity="0.600000"
         flood-color="rgb(0,0,0)" /><feGaussianBlur
         id="feGaussianBlur407"
         result="blur"
         in="fbSourceGraphic"
         stdDeviation="0.400000" /><feOffset
         id="feOffset407"
         result="offset"
         in="blur"
         dx="0.000000"
         dy="0.000000" /><feComposite
         id="feComposite407"
         result="comp1"
         operator="in"
         in="flood"
         in2="offset" /><feComposite
         id="feComposite408"
         result="comp2"
         operator="over"
         in="fbSourceGraphic"
         in2="comp1" /></filter><clipPath
       clipPathUnits="userSpaceOnUse"
       id="clipath_lpe_path-effect66"><path
         style="display:none;fill:none;fill-opacity:1;stroke:#000000;stroke-width:0.3;stroke-linejoin:round;stroke-miterlimit:1.6;stroke-dasharray:none;stroke-opacity:1;paint-order:stroke fill markers"
         d="m 94.821931,175 2.061403,-10 1.999996,-10 h 4.99999 l -3.999997,20 z"
         id="path113" /><path
         id="lpe_path-effect66"
         style="fill:none;fill-opacity:1;stroke:#000000;stroke-width:0.3;stroke-linejoin:round;stroke-miterlimit:1.6;stroke-dasharray:none;stroke-opacity:1;paint-order:stroke fill markers"
         class="powerclip"
         d="m 82.849832,149.85014 h 19.299998 v 30.29981 H 82.849832 Z M 94.821931,175 h 5.061392 l 3.999997,-20 h -4.99999 l -1.999996,10 z" /></clipPath><clipPath
       clipPathUnits="userSpaceOnUse"
       id="clipath_lpe_path-effect82"><path
         style="display:none;fill:none;fill-opacity:1;stroke:#000000;stroke-width:0.3;stroke-linejoin:round;stroke-miterlimit:1.6;stroke-dasharray:none;stroke-opacity:1;paint-order:stroke fill markers"
         d="m 94.821931,175 2.061403,-10 1.999996,-10 h 4.99999 l -3.999997,20 z"
         id="path114" /><path
         id="lpe_path-effect82"
         style="fill:none;fill-opacity:1;stroke:#000000;stroke-width:0.3;stroke-linejoin:round;stroke-miterlimit:1.6;stroke-dasharray:none;stroke-opacity:1;paint-order:stroke fill markers"
         class="powerclip"
         d="m 82.849832,149.85014 h 19.299998 v 30.29981 H 82.849832 Z M 94.821931,175 h 5.061392 l 3.999997,-20 h -4.99999 l -1.999996,10 z" /></clipPath><clipPath
       clipPathUnits="userSpaceOnUse"
       id="clipath_lpe_path-effect95"><path
         style="display:none;fill:none;fill-opacity:1;stroke:#000000;stroke-width:0.3;stroke-linejoin:round;stroke-miterlimit:1.6;stroke-dasharray:none;stroke-opacity:1;paint-order:stroke fill markers"
         d="m 94.821931,175 2.061403,-10 1.999996,-10 h 4.99999 l -3.999997,20 z"
         id="path115" /><path
         id="lpe_path-effect95"
         style="fill:none;fill-opacity:1;stroke:#000000;stroke-width:0.3;stroke-linejoin:round;stroke-miterlimit:1.6;stroke-dasharray:none;stroke-opacity:1;paint-order:stroke fill markers"
         class="powerclip"
         d="m 82.849832,149.85014 h 19.299998 v 30.29981 H 82.849832 Z M 94.821931,175 h 5.061392 l 3.999997,-20 h -4.99999 l -1.999996,10 z" /></clipPath><clipPath
       clipPathUnits="userSpaceOnUse"
       id="clipath_lpe_path-effect105"><path
         style="display:none;fill:none;fill-opacity:1;stroke:#000000;stroke-width:0.3;stroke-linejoin:round;stroke-miterlimit:1.6;stroke-dasharray:none;stroke-opacity:1;paint-order:stroke fill markers"
         d="m 94.821931,175 2.061403,-10 1.999996,-10 h 4.99999 l -3.999997,20 z"
         id="path116" /><path
         id="lpe_path-effect105"
         style="fill:none;fill-opacity:1;stroke:#000000;stroke-width:0.3;stroke-linejoin:round;stroke-miterlimit:1.6;stroke-dasharray:none;stroke-opacity:1;paint-order:stroke fill markers"
         class="powerclip"
         d="m 82.849832,149.85014 h 19.299998 v 30.29981 H 82.849832 Z M 94.821931,175 h 5.061392 l 3.999997,-20 h -4.99999 l -1.999996,10 z" /></clipPath></defs><g
     id="layer1"
     transform="translate(-297.99387,-206.82805)"><g
       id="g64"
       transform="translate(223.00754,52.93805)"
       style="filter:url(#filter289)"><path
         id="path21"
         style="fill:#000000;fill-opacity:1;stroke:#000000;stroke-width:0.3;stroke-linejoin:round;stroke-miterlimit:1.6;stroke-dasharray:none;stroke-opacity:1;paint-order:stroke fill markers"
         d="m 92.000102,155.00014 -1.999878,9.99991 -2.000395,9.9999 h 3.998206 0.0021 c 2.761184,-1.7e-4 4.999524,-2.23851 4.999695,-4.99969 1.16e-4,-2.76139 -2.238308,-5.00004 -4.999695,-5.00021 2.761386,-1.8e-4 4.999817,-2.23883 4.999695,-5.00022 -1.71e-4,-2.76118 -2.238511,-4.99952 -4.999695,-4.99969 z"
         clip-path="url(#clipath_lpe_path-effect66)" /><path
         id="path23"
         style="fill:#000000;fill-opacity:1;stroke:#000000;stroke-width:0.3;stroke-linejoin:round;stroke-miterlimit:1.6;stroke-dasharray:none;stroke-opacity:1;paint-order:stroke fill markers"
         d="m 107.88337,155.00014 -5.25498,6.27558 -0.17363,0.86714 v 5.1e-4 l -1.42834,7.1422 2.85668,5.71438 h 5.00021 l -4.72633,-9.45317 4.64468,-5.54695 4.18682,-4.99969 z" /><g
         id="g29"><path
           style="fill:#000000;fill-opacity:0;stroke:#000000;stroke-width:0.3;stroke-linejoin:round;stroke-miterlimit:1.6;stroke-dasharray:none;stroke-opacity:1;paint-order:stroke fill markers"
           d="m 83.045435,174.48173 1.847732,-8.96346 a 179.45737,179.45737 101.47887 0 0 0.210614,-1.03716 l 1.792442,-8.96222 A 0.64547945,0.64547945 140.65496 0 1 87.529168,155 l 4.470834,0 -4,20 h -4.532236 a 0.43121025,0.43121025 50.823909 0 1 -0.422331,-0.51827 z"
           id="path24" /><path
           style="fill:#000000;fill-opacity:0;stroke:#000000;stroke-width:0.3;stroke-linejoin:round;stroke-miterlimit:1.6;stroke-dasharray:none;stroke-opacity:1;paint-order:stroke fill markers"
           d="m 76.107605,175 h 4.032619 a 0.61715345,0.61715345 141.81087 0 0 0.599794,-0.47181 l 0.740644,-3.05638 A 0.38187216,0.38187216 51.810866 0 0 81.109532,171 h -4.002859 a 0.62162823,0.62162823 142.01184 0 0 -0.603101,0.47099 l -0.76379,3.05802 A 0.37912326,0.37912326 52.011839 0 0 76.107605,175 Z"
           id="path25"
           transform="matrix(0.99482824,0,0,1.2053715,0.75856983,-35.970868)" /><path
           style="fill:#000000;fill-opacity:0;stroke:#000000;stroke-width:0.3;stroke-linejoin:round;stroke-miterlimit:1.6;stroke-dasharray:none;stroke-opacity:1;paint-order:stroke fill markers"
           d="m 76.107605,175 h 4.032619 a 0.61715345,0.61715345 141.81087 0 0 0.599794,-0.47181 l 0.740644,-3.05638 A 0.38187216,0.38187216 51.810866 0 0 81.109532,171 h -4.002859 a 0.62162823,0.62162823 142.01184 0 0 -0.603101,0.47099 l -0.76379,3.05802 A 0.37912326,0.37912326 52.011839 0 0 76.107605,175 Z"
           id="path28"
           transform="matrix(0.99482824,0,0,1.2053715,2.2702465,-43.52927)" /><path
           style="fill:none;fill-opacity:1;stroke:#000000;stroke-width:0.3;stroke-linejoin:round;stroke-miterlimit:1.6;stroke-dasharray:none;stroke-opacity:1;paint-order:stroke fill markers"
           d="m 94.928767,174.48173 1.847732,-8.96346 a 179.44567,179.44567 101.47886 0 0 0.210614,-1.03716 l 1.792438,-8.96222 A 0.6454792,0.6454792 140.65495 0 1 99.412496,155 h 4.470824 l -3.999997,20 h -4.532225 a 0.43121025,0.43121025 50.823909 0 1 -0.422331,-0.51827 z"
           id="path29" /></g><path
         id="path31"
         style="fill:#000000;fill-opacity:1;stroke:#000000;stroke-width:0.3;stroke-linejoin:round;stroke-miterlimit:1.6;stroke-dasharray:none;stroke-opacity:1;paint-order:stroke fill markers"
         d="m 92.000102,155.00014 -1.999878,9.99991 -2.000395,9.9999 h 3.998206 0.0021 c 2.761184,-1.7e-4 4.999524,-2.23851 4.999695,-4.99969 1.16e-4,-2.76139 -2.238308,-5.00004 -4.999695,-5.00021 2.761386,-1.8e-4 4.999817,-2.23883 4.999695,-5.00022 -1.71e-4,-2.76118 -2.238511,-4.99952 -4.999695,-4.99969 z"
         clip-path="url(#clipath_lpe_path-effect82)" /><path
         id="path32"
         style="fill:#000000;fill-opacity:1;stroke:#000000;stroke-width:0.3;stroke-linejoin:round;stroke-miterlimit:1.6;stroke-dasharray:none;stroke-opacity:1;paint-order:stroke fill markers"
         d="m 107.88337,155.00014 -5.25498,6.27558 -0.17363,0.86714 v 5.1e-4 l -1.42834,7.1422 2.85668,5.71438 h 5.00021 l -4.72633,-9.45317 4.64468,-5.54695 4.18682,-4.99969 z" /><g
         id="g36"><path
           style="fill:#000000;fill-opacity:0;stroke:#000000;stroke-width:0.3;stroke-linejoin:round;stroke-miterlimit:1.6;stroke-dasharray:none;stroke-opacity:1;paint-order:stroke fill markers"
           d="m 83.045435,174.48173 1.847732,-8.96346 a 179.45737,179.45737 101.47887 0 0 0.210614,-1.03716 l 1.792442,-8.96222 A 0.64547945,0.64547945 140.65496 0 1 87.529168,155 l 4.470834,0 -4,20 h -4.532236 a 0.43121025,0.43121025 50.823909 0 1 -0.422331,-0.51827 z"
           id="path33" /><path
           style="fill:#000000;fill-opacity:0;stroke:#000000;stroke-width:0.3;stroke-linejoin:round;stroke-miterlimit:1.6;stroke-dasharray:none;stroke-opacity:1;paint-order:stroke fill markers"
           d="m 76.107605,175 h 4.032619 a 0.61715345,0.61715345 141.81087 0 0 0.599794,-0.47181 l 0.740644,-3.05638 A 0.38187216,0.38187216 51.810866 0 0 81.109532,171 h -4.002859 a 0.62162823,0.62162823 142.01184 0 0 -0.603101,0.47099 l -0.76379,3.05802 A 0.37912326,0.37912326 52.011839 0 0 76.107605,175 Z"
           id="path34"
           transform="matrix(0.99482824,0,0,1.2053715,0.75856983,-35.970868)" /><path
           style="fill:#000000;fill-opacity:0;stroke:#000000;stroke-width:0.3;stroke-linejoin:round;stroke-miterlimit:1.6;stroke-dasharray:none;stroke-opacity:1;paint-order:stroke fill markers"
           d="m 76.107605,175 h 4.032619 a 0.61715345,0.61715345 141.81087 0 0 0.599794,-0.47181 l 0.740644,-3.05638 A 0.38187216,0.38187216 51.810866 0 0 81.109532,171 h -4.002859 a 0.62162823,0.62162823 142.01184 0 0 -0.603101,0.47099 l -0.76379,3.05802 A 0.37912326,0.37912326 52.011839 0 0 76.107605,175 Z"
           id="path35"
           transform="matrix(0.99482824,0,0,1.2053715,2.2702465,-43.52927)" /><path
           style="fill:none;fill-opacity:1;stroke:#000000;stroke-width:0.3;stroke-linejoin:round;stroke-miterlimit:1.6;stroke-dasharray:none;stroke-opacity:1;paint-order:stroke fill markers"
           d="m 94.928767,174.48173 1.847732,-8.96346 a 179.44567,179.44567 101.47886 0 0 0.210614,-1.03716 l 1.792438,-8.96222 A 0.6454792,0.6454792 140.65495 0 1 99.412496,155 h 4.470824 l -3.999997,20 h -4.532225 a 0.43121025,0.43121025 50.823909 0 1 -0.422331,-0.51827 z"
           id="path36" /></g><g
         id="g63"><path
           id="path37"
           style="fill:#000000;fill-opacity:1;stroke:#000000;stroke-width:0.3;stroke-linejoin:round;stroke-miterlimit:1.6;stroke-dasharray:none;stroke-opacity:1;paint-order:stroke fill markers"
           d="m 92.000102,155.00014 -1.999878,9.99991 -2.000395,9.9999 h 3.998206 0.0021 c 2.761184,-1.7e-4 4.999524,-2.23851 4.999695,-4.99969 1.16e-4,-2.76139 -2.238308,-5.00004 -4.999695,-5.00021 2.761386,-1.8e-4 4.999817,-2.23883 4.999695,-5.00022 -1.71e-4,-2.76118 -2.238511,-4.99952 -4.999695,-4.99969 z"
           clip-path="url(#clipath_lpe_path-effect95)" /><path
           id="path45"
           style="fill:#000000;fill-opacity:1;stroke:#000000;stroke-width:0.3;stroke-linejoin:round;stroke-miterlimit:1.6;stroke-dasharray:none;stroke-opacity:1;paint-order:stroke fill markers"
           d="m 107.88337,155.00014 -5.25498,6.27558 -0.17363,0.86714 v 5.1e-4 l -1.42834,7.1422 2.85668,5.71438 h 5.00021 l -4.72633,-9.45317 4.64468,-5.54695 4.18682,-4.99969 z" /><g
           id="g49"><path
             style="fill:#000000;fill-opacity:0;stroke:#000000;stroke-width:0.3;stroke-linejoin:round;stroke-miterlimit:1.6;stroke-dasharray:none;stroke-opacity:1;paint-order:stroke fill markers"
             d="m 83.045435,174.48173 1.847732,-8.96346 a 179.45737,179.45737 101.47887 0 0 0.210614,-1.03716 l 1.792442,-8.96222 A 0.64547945,0.64547945 140.65496 0 1 87.529168,155 l 4.470834,0 -4,20 h -4.532236 a 0.43121025,0.43121025 50.823909 0 1 -0.422331,-0.51827 z"
             id="path46" /><path
             style="fill:#000000;fill-opacity:0;stroke:#000000;stroke-width:0.3;stroke-linejoin:round;stroke-miterlimit:1.6;stroke-dasharray:none;stroke-opacity:1;paint-order:stroke fill markers"
             d="m 76.107605,175 h 4.032619 a 0.61715345,0.61715345 141.81087 0 0 0.599794,-0.47181 l 0.740644,-3.05638 A 0.38187216,0.38187216 51.810866 0 0 81.109532,171 h -4.002859 a 0.62162823,0.62162823 142.01184 0 0 -0.603101,0.47099 l -0.76379,3.05802 A 0.37912326,0.37912326 52.011839 0 0 76.107605,175 Z"
             id="path47"
             transform="matrix(0.99482824,0,0,1.2053715,0.75856983,-35.970868)" /><path
             style="fill:#000000;fill-opacity:0;stroke:#000000;stroke-width:0.3;stroke-linejoin:round;stroke-miterlimit:1.6;stroke-dasharray:none;stroke-opacity:1;paint-order:stroke fill markers"
             d="m 76.107605,175 h 4.032619 a 0.61715345,0.61715345 141.81087 0 0 0.599794,-0.47181 l 0.740644,-3.05638 A 0.38187216,0.38187216 51.810866 0 0 81.109532,171 h -4.002859 a 0.62162823,0.62162823 142.01184 0 0 -0.603101,0.47099 l -0.76379,3.05802 A 0.37912326,0.37912326 52.011839 0 0 76.107605,175 Z"
             id="path48"
             transform="matrix(0.99482824,0,0,1.2053715,2.2702465,-43.52927)" /><path
             style="fill:none;fill-opacity:1;stroke:#000000;stroke-width:0.3;stroke-linejoin:round;stroke-miterlimit:1.6;stroke-dasharray:none;stroke-opacity:1;paint-order:stroke fill markers"
             d="m 94.928767,174.48173 1.847732,-8.96346 a 179.44567,179.44567 101.47886 0 0 0.210614,-1.03716 l 1.792438,-8.96222 A 0.6454792,0.6454792 140.65495 0 1 99.412496,155 h 4.470824 l -3.999997,20 h -4.532225 a 0.43121025,0.43121025 50.823909 0 1 -0.422331,-0.51827 z"
             id="path49" /></g><path
           id="path50"
           style="fill:#000000;fill-opacity:1;stroke:#000000;stroke-width:0.3;stroke-linejoin:round;stroke-miterlimit:1.6;stroke-dasharray:none;stroke-opacity:1;paint-order:stroke fill markers"
           d="m 92.000102,155.00014 -1.999878,9.99991 -2.000395,9.9999 h 3.998206 0.0021 c 2.761184,-1.7e-4 4.999524,-2.23851 4.999695,-4.99969 1.16e-4,-2.76139 -2.238308,-5.00004 -4.999695,-5.00021 2.761386,-1.8e-4 4.999817,-2.23883 4.999695,-5.00022 -1.71e-4,-2.76118 -2.238511,-4.99952 -4.999695,-4.99969 z"
           clip-path="url(#clipath_lpe_path-effect105)" /><path
           id="path51"
           style="fill:#000000;fill-opacity:1;stroke:#000000;stroke-width:0.3;stroke-linejoin:round;stroke-miterlimit:1.6;stroke-dasharray:none;stroke-opacity:1;paint-order:stroke fill markers"
           d="m 107.88337,155.00014 -5.25498,6.27558 -0.17363,0.86714 v 5.1e-4 l -1.42834,7.1422 2.85668,5.71438 h 5.00021 l -4.72633,-9.45317 4.64468,-5.54695 4.18682,-4.99969 z" /><g
           id="g62"><path
             style="fill:#000000;fill-opacity:0;stroke:#000000;stroke-width:0.3;stroke-linejoin:round;stroke-miterlimit:1.6;stroke-dasharray:none;stroke-opacity:1;paint-order:stroke fill markers"
             d="m 83.045435,174.48173 1.847732,-8.96346 a 179.45737,179.45737 101.47887 0 0 0.210614,-1.03716 l 1.792442,-8.96222 A 0.64547945,0.64547945 140.65496 0 1 87.529168,155 l 4.470834,0 -4,20 h -4.532236 a 0.43121025,0.43121025 50.823909 0 1 -0.422331,-0.51827 z"
             id="path52" /><path
             style="fill:#000000;fill-opacity:0;stroke:#000000;stroke-width:0.3;stroke-linejoin:round;stroke-miterlimit:1.6;stroke-dasharray:none;stroke-opacity:1;paint-order:stroke fill markers"
             d="m 76.107605,175 h 4.032619 a 0.61715345,0.61715345 141.81087 0 0 0.599794,-0.47181 l 0.740644,-3.05638 A 0.38187216,0.38187216 51.810866 0 0 81.109532,171 h -4.002859 a 0.62162823,0.62162823 142.01184 0 0 -0.603101,0.47099 l -0.76379,3.05802 A 0.37912326,0.37912326 52.011839 0 0 76.107605,175 Z"
             id="path53"
             transform="matrix(0.99482824,0,0,1.2053715,0.75856983,-35.970868)" /><path
             style="fill:#000000;fill-opacity:0;stroke:#000000;stroke-width:0.3;stroke-linejoin:round;stroke-miterlimit:1.6;stroke-dasharray:none;stroke-opacity:1;paint-order:stroke fill markers"
             d="m 76.107605,175 h 4.032619 a 0.61715345,0.61715345 141.81087 0 0 0.599794,-0.47181 l 0.740644,-3.05638 A 0.38187216,0.38187216 51.810866 0 0 81.109532,171 h -4.002859 a 0.62162823,0.62162823 142.01184 0 0 -0.603101,0.47099 l -0.76379,3.05802 A 0.37912326,0.37912326 52.011839 0 0 76.107605,175 Z"
             id="path54"
             transform="matrix(0.99482824,0,0,1.2053715,2.2702465,-43.52927)" /><path
             style="fill:none;fill-opacity:1;stroke:#000000;stroke-width:0.3;stroke-linejoin:round;stroke-miterlimit:1.6;stroke-dasharray:none;stroke-opacity:1;paint-order:stroke fill markers"
             d="m 94.928767,174.48173 1.847732,-8.96346 a 179.44567,179.44567 101.47886 0 0 0.210614,-1.03716 l 1.792438,-8.96222 A 0.6454792,0.6454792 140.65495 0 1 99.412496,155 h 4.470824 l -3.999997,20 h -4.532225 a 0.43121025,0.43121025 50.823909 0 1 -0.422331,-0.51827 z"
             id="path62" /></g></g></g></g></svg>
